PathFileType	4	(X/Y/Z)	55_2_115_p1_0-263.trc
DataRate	CameraRate	NumFrames	NumMarkers	Units	OrigDataRate	OrigDataStartFrame	OrigNumFrames
48.0	48.0	5	27	m	48.0	0	264
Frame#	Time	RHip			RKnee			RAnkle			RBigToe			RSmallToe			RHeel			LHip			LKnee			LAnkle			LBigToe			LSmallToe			LHeel			Neck			Head			Nose			RShoulder			RElbow			RWrist			RThumb			RIndex			RPinky			LShoulder			LElbow			LWrist			LThumb			LIndex			LPinky			
		X1	Y1	Z1	X2	Y2	Z2	X3	Y3	Z3	X4	Y4	Z4	X5	Y5	Z5	X6	Y6	Z6	X7	Y7	Z7	X8	Y8	Z8	X9	Y9	Z9	X10	Y10	Z10	X11	Y11	Z11	X12	Y12	Z12	X13	Y13	Z13	X14	Y14	Z14	X15	Y15	Z15	X16	Y16	Z16	X17	Y17	Z17	X18	Y18	Z18	X19	Y19	Z19	X20	Y20	Z20	X21	Y21	Z21	X22	Y22	Z22	X23	Y23	Z23	X24	Y24	Z24	X25	Y25	Z25	X26	Y26	Z26	X27	Y27	Z27	
0	0.0	0.35256449500509246	0.53662497849656	0.7137368950588484	0.35510538301463596	0.5756178308001687	1.1863915089685324	0.3586359193046119	0.6004468493657736	1.6356394627410296	0.2827559756490046	0.41996321051543517	1.6340206928519434	0.35280521849492974	0.4248563480275238	1.6335355729922096	0.34263405752519055	0.6924713511802368	1.718078400343141	0.14714889711418583	0.5430660309167691	0.7400568391487746	0.1290921027827537	0.5977702594570271	1.1986579977590304	0.12280283850990677	0.604507364579036	1.625015752667381	0.12962009184070575	0.4325372274256846	1.6476746158587006	0.08103252020574785	0.4801741397763505	1.6653516669074548	0.1409129972004801	0.6599838318558848	1.7036970811660035	0.23916668655359472	0.5843189480258817	0.2088385040293515	0.22825746624325952	0.5569901934475019	-0.03937754241865348	0.23567791683942002	0.526041224230438	0.0874598045595087	0.3969067985917231	0.5862328544775476	0.29263323441568906	0.3935747441170212	0.4910960724732402	0.5459401329930753	0.2547998442320328	0.3098641981286874	0.6885799320641619	0.15840490389706077	0.3075528730572201	0.7644618341621974	0.15441379248039275	0.30593596262539424	0.7678907897035684	0.18074153837354143	0.32721879147189253	0.7961756960094274	0.09251851256028826	0.6242392099965086	0.2910356985943628	0.08474725801398762	0.4593506616989585	0.509034348348454	0.15742042427223316	0.3283205078372534	0.6890687112229541	0.19624642429546893	0.2697043985973237	0.7458773755582307	0.18724793696048792	0.2674433881654705	0.7766464763553413	0.16354817385316125	0.3075342769599853	0.7802972806492804
1	0.020833333333333332	0.35309428482018096	0.5359205754518278	0.7137787330496155	0.35447747564497567	0.5758877491601427	1.190230976523606	0.35873648180261214	0.6006883305960747	1.6357798010405609	0.28698221315924444	0.4304856041598475	1.6428260705257753	0.35346952389217695	0.4248359955694929	1.6377372772342247	0.3425523720856155	0.6918154941756678	1.7174512802760165	0.1476747995704931	0.543074489497532	0.7362249280935425	0.12812668460662954	0.5976103494538944	1.2025992767310194	0.12292207531456008	0.6045367151517484	1.6248707850092774	0.1296200049433945	0.4327099751917967	1.647704448435709	0.08214308189872616	0.4798362373475022	1.6610032918695405	0.14497550945815793	0.6746651606272087	1.7083621476055324	0.239153587741563	0.5844404548288178	0.20885683818061934	0.22825031798780587	0.5572374132096071	-0.03928100117169835	0.23565975576091777	0.5260448902137793	0.08738322375753393	0.3969572374790207	0.5864519626607914	0.2926264987176964	0.3906262117288087	0.5044647008410251	0.5528493800424912	0.2520452123668499	0.3222084098419451	0.6931499508324611	0.15876820658604146	0.306642455186009	0.7677111132464943	0.1540541000988947	0.3059208893824086	0.7714470879634002	0.18531567207737892	0.3389839560110256	0.8049189257275676	0.09257657492559598	0.6242277676290525	0.2908882854110022	0.08837491905406644	0.47061440107506025	0.5119863805985843	0.15752467494939973	0.3287977044050034	0.6892390000501692	0.18473240402937877	0.2838689007734679	0.7550855874368081	0.1828207844083917	0.2787527143927606	0.7806941039297931	0.16353129479673184	0.30821966250819166	0.7806571702811508
2	0.041666666666666664	0.35346544353322895	0.5355853840384949	0.7099162110574081	0.3551031382652822	0.5753586203956063	1.1864954678055206	0.35875193265797023	0.6007627601580469	1.6358071661731595	0.2872884565035846	0.4310301895982092	1.6437498673079916	0.3523605123581751	0.42315285262170976	1.6334504389013353	0.3472319552962114	0.70408582207494	1.725442158863902	0.15192211718120482	0.5298740876282931	0.7278451447089039	0.12468181232666964	0.596065070201008	1.1977523916354182	0.12291621708832536	0.6045121746269707	1.6247701443229372	0.12960926815644333	0.43254624248306717	1.6475628947903866	0.08214771604805306	0.4796966503321419	1.6609067751588877	0.14494687219702085	0.6747213346176124	1.7084534537858842	0.23915619233961996	0.584515455867606	0.2088824224754085	0.22817932064769672	0.5572071474567685	-0.03920768883161559	0.2356706576481748	0.5260719017315317	0.08737644475861178	0.3969682879808285	0.5865154576005971	0.2926020138852909	0.39069061985708575	0.5046073510663527	0.5527718752757347	0.25277975266958	0.32300936339462444	0.6970650428540947	0.1585944796648039	0.30760290223853004	0.768128252393126	0.1519277663290993	0.3189050364326426	0.7768952797863792	0.1908638157210241	0.3627194511590975	0.8264433136984571	0.09261838810683291	0.6242322286567942	0.29091378942456186	0.08840331674045673	0.47068645559943056	0.5119820864030193	0.1576336830206381	0.32913401923273095	0.6893327959280001	0.18893833759501447	0.3070302340706786	0.7674143314954998	0.18022521514355697	0.2921567693890414	0.7899879642151356	0.1676240283591835	0.3193145778573309	0.7888543024149091
3	0.0625	0.35305553544311635	0.5354376718413735	0.7136905670571029	0.3550998959864622	0.5753271904197771	1.1865919598645756	0.3587573231836255	0.6007896429133981	1.6357660915882808	0.28607133584802497	0.429407809064229	1.6386879551462394	0.35244724031317415	0.4235698256960025	1.6334292208247285	0.34734943556310843	0.7044757380900766	1.725692186103779	0.15140276158972527	0.529657516647722	0.7315991287041519	0.12387734743867929	0.5960686083189672	1.2019779535458615	0.12288051851302156	0.6045040719478385	1.6248338638098219	0.1331907333641846	0.41861844806623305	1.6378780660778174	0.0810951946597344	0.4799021941338369	1.6651208282970587	0.14065177765149625	0.6617846210384043	1.699804023061483	0.23913321718464436	0.5845193847083645	0.20889498610500096	0.2281884208579987	0.5573073140564827	-0.039212542504656	0.23569683576470002	0.526130695495855	0.08742444017804366	0.39691617222211084	0.5865250247191677	0.2925787439238849	0.39075677849446994	0.5047571041471474	0.5527309804211659	0.25281615508832983	0.323258016835725	0.6972311649850734	0.1554304248653111	0.3185827463408465	0.772653722221288	0.15552966924619943	0.3285295715003851	0.780963097717046	0.19843954819474405	0.36256338095777824	0.8272628177382103	0.09259662233414648	0.6243400322479253	0.29100156811673145	0.08859413747476069	0.47045028738360956	0.5123006178673096	0.1611153032302673	0.3387153028719556	0.6928370428509429	0.18942332131736145	0.3076057365385094	0.7680209335940594	0.18462508609120143	0.2924998033799099	0.79421458731174	0.16760348427741373	0.3192047788746391	0.78896384949152
4	0.08333333333333333	0.3514058530986846	0.5509532142898844	0.7196537911974629	0.35513433864391547	0.5751942972570118	1.1864428132126832	0.358754093038384	0.6006728741376853	1.6356679621174932	0.28606443146731475	0.4293063707824883	1.6386274939602272	0.3524257198751262	0.42321039561141693	1.6332001391046473	0.34227324969823364	0.6914149675210166	1.7171215817622547	0.14888611005917315	0.5440326529632673	0.737434614565711	0.12886439341859668	0.5974638810520249	1.1983035106773992	0.12290629147250368	0.6044865126813082	1.6247131084491395	0.13327627883139767	0.41895019561533836	1.6380380847937657	0.08214285104321717	0.4794036404916487	1.6606817793873563	0.14063426405582197	0.661813579427749	1.699619287332253	0.23912112796061863	0.5846079376287874	0.20896064703066805	0.22813782352042336	0.5573094540876512	-0.03914969089207854	0.23583759652311312	0.5256062512779299	0.09087529615841496	0.3945960504470606	0.6001285738968887	0.29526260637958324	0.39076644743938693	0.5048938814227999	0.5527831236578171	0.25285898091002057	0.3233747020778572	0.6973859025245035	0.1587247664139247	0.3069463228361482	0.7681327842988116	0.15596602923319322	0.3198908205145344	0.7777677413094918	0.19528092248167586	0.37465133242451015	0.8322364540445405	0.09262258487368454	0.6243396576219874	0.29098939880376196	0.08864385185977741	0.4704061833392824	0.512167080849646	0.16113357770567918	0.3390241747779388	0.6929068990974502	0.1934188623925724	0.30970377283113976	0.7691012043332149	0.18472847943609344	0.2923833157018369	0.7941834098172134	0.16336135098330798	0.30912273947052177	0.7811872964112048
